<svg width="24" height="24" xmlns="http://www.w3.org/2000/svg"><g fill-rule="nonzero" fill="none"><path fill="#00247D" d="M0 8.528h3.749L0 5.904zM3.107 20.517h5.552V16.63zM15.32 16.63v3.887h5.55zM0 15.189v2.625l3.75-2.625zM20.872 3.2h-5.553v3.888zM20.227 15.189l3.75 2.626v-2.626zM20.229 8.528h3.75V5.903zM8.659 3.2H3.106L8.66 7.088z"/><path d="M16.744 15.189l6.469 4.53c.314-.32.538-.721.66-1.165l-4.806-3.365h-2.323zM8.659 15.189H7.233L.765 19.718c.347.353.792.605 1.29.723l6.604-4.624v-.628zM15.32 8.528h1.425L23.213 4a2.66 2.66 0 0 0-1.29-.723L15.319 7.9v.628zM7.233 8.528L.765 4a2.66 2.66 0 0 0-.66 1.165L4.91 8.528h2.323z" fill="#CF1B2B"/><path d="M23.978 13.857h-9.991v6.66h1.332V16.63l5.552 3.887h.443c.744 0 1.416-.307 1.9-.798l-6.47-4.53h2.323l4.806 3.365c.062-.225.105-.457.105-.701v-.039l-3.75-2.625h3.75v-1.332zM0 13.857v1.332h3.75L0 17.814v.039c0 .727.292 1.384.765 1.865l6.468-4.53h1.426v.629L2.055 20.44c.196.045.399.076.61.076h.441L8.66 16.63v3.888H9.99v-6.66H0zM23.978 5.864c0-.727-.293-1.384-.765-1.865l-6.468 4.53H15.32V7.9l6.604-4.624a2.665 2.665 0 0 0-.61-.076h-.441l-5.553 3.888V3.2h-1.332v6.66h9.99V8.528H20.23l3.749-2.625v-.039zM8.659 3.2v3.888L3.106 3.2h-.442c-.744 0-1.416.307-1.9.8l6.469 4.528H4.91L.105 5.164a2.643 2.643 0 0 0-.105.7v.04l3.749 2.624H0V9.86h9.99V3.2H8.66z" fill="#EEE"/><path fill="#CF1B2B" d="M13.987 9.86V3.2H9.991v6.66H0v3.997h9.99v6.66h3.997v-6.66h9.99V9.86z"/></g></svg>
